<svg width="32" height="32" viewBox="0 0 32 32" fill="none" xmlns="http://www.w3.org/2000/svg">
  <rect width="32" height="32" rx="8" fill="url(#grad)" />
  <!-- Open book -->
  <path d="M5 8C5 8 7.5 6.5 11 6.5C14.5 6.5 16 8.5 16 8.5C16 8.5 17.5 6.5 21 6.5C24.5 6.5 27 8 27 8V23C27 23 24.5 22 21 22C17.5 22 16 24 16 24C16 24 14.5 22 11 22C7.5 22 5 23 5 23V8Z" stroke="white" stroke-width="1.5" stroke-linecap="round" stroke-linejoin="round" fill="rgba(255,255,255,0.15)" />
  <path d="M16 8.5V24" stroke="white" stroke-width="1.5" stroke-linecap="round" />
  <!-- AI sparkle -->
  <circle cx="22" cy="12" r="1.4" fill="white" opacity="0.9" />
  <path d="M22 9.8V14.2M19.8 12H24.2" stroke="white" stroke-width="0.8" stroke-linecap="round" opacity="0.7" />
  <defs>
    <linearGradient id="grad" x1="0" y1="0" x2="32" y2="32" gradientUnits="userSpaceOnUse">
      <stop stop-color="#4a9b8e" />
      <stop offset="1" stop-color="#3a7d72" />
    </linearGradient>
  </defs>
</svg>
